<?xml version="1.0" standalone="no"?>
<!DOCTYPE svg PUBLIC "-//W3C//DTD SVG 20010904//EN"
 "http://www.w3.org/TR/2001/REC-SVG-20010904/DTD/svg10.dtd">
<svg version="1.0" xmlns="http://www.w3.org/2000/svg"
 width="140.000000pt" height="91.000000pt" viewBox="0 0 120.000000 71.000000"
 preserveAspectRatio="xMidYMid meet">
<metadata>
Created by potrace 1.10, written by Peter Selinger 2001-2011
</metadata>
<g transform="translate(0.000000,71.000000) scale(0.100000,-0.100000)"
fill="#000000" stroke="none">
<path d="M270 636 c-6 -17 -5 -106 1 -106 5 0 9 -13 9 -29 0 -17 5 -33 10 -36
6 -3 10 -11 10 -16 0 -6 -4 -7 -10 -4 -26 16 -59 -26 -74 -97 -4 -16 -10 -28
-14 -28 -4 0 -23 22 -42 50 -19 27 -38 49 -42 50 -9 0 -52 73 -50 84 2 4 0 17
-3 27 -5 15 -10 17 -26 9 -25 -14 -25 -40 1 -47 19 -5 60 -63 60 -86 0 -7 14
-30 30 -51 34 -44 37 -56 15 -56 -38 0 -48 -90 -13 -114 33 -23 88 -21 88 3 0
14 -6 17 -23 14 -31 -6 -51 19 -43 53 6 23 11 26 37 20 24 -5 31 -2 40 18 8
17 17 22 36 18 20 -4 23 -9 19 -28 -6 -21 -3 -24 19 -24 20 0 25 5 25 25 0 20
5 25 25 25 21 0 25 -5 25 -29 0 -57 -12 -91 -31 -91 -12 0 -19 7 -19 20 0 15
-7 20 -25 20 -19 0 -25 -5 -25 -21 0 -11 -4 -17 -10 -14 -5 3 -10 21 -10 38 0
18 -5 39 -10 47 -7 11 -10 2 -10 -32 0 -25 -3 -53 -6 -62 -5 -14 10 -16 125
-16 110 0 131 2 131 15 0 9 -9 15 -25 15 -16 0 -25 6 -25 15 0 8 9 15 20 15
11 0 20 7 20 15 0 8 -4 15 -10 15 -5 0 -10 5 -10 10 0 6 7 10 15 10 21 0 19
27 -3 32 -12 4 -23 21 -30 50 -13 49 -34 73 -74 83 -17 4 -25 12 -21 21 3 7
10 12 16 11 7 -1 12 5 12 13 0 8 5 18 10 23 7 4 6 10 -1 15 -14 10 -17 79 -4
87 22 14 -4 25 -56 24 -29 -1 -54 -2 -54 -3z m94 -229 c37 -30 29 -61 -21 -78
-40 -13 -83 2 -83 30 0 17 49 71 64 71 6 0 24 -10 40 -23z m72 -97 c9 0 13 -9
10 -27 -5 -38 -31 -95 -39 -86 -4 3 -7 43 -6 87 0 66 2 76 11 54 5 -16 16 -28
24 -28z"/>
<path d="M615 245 c0 -68 2 -75 20 -75 18 0 20 7 20 75 0 68 -2 75 -20 75 -18
0 -20 -7 -20 -75z"/>
<path d="M802 246 l1 -75 41 1 c52 0 66 12 66 55 0 39 -22 53 -53 34 -18 -12
-19 -10 -15 23 4 32 1 36 -19 36 -22 0 -23 -3 -21 -74z m73 -26 c0 -8 -8 -16
-17 -18 -13 -2 -18 3 -18 18 0 15 5 20 18 18 9 -2 17 -10 17 -18z"/>
<path d="M932 246 l1 -75 41 1 c52 0 66 12 66 55 0 39 -22 53 -53 34 -18 -12
-19 -10 -15 23 4 32 1 36 -19 36 -21 0 -22 -4 -21 -74z m73 -26 c0 -8 -8 -16
-17 -18 -13 -2 -18 3 -18 18 0 15 5 20 18 18 9 -2 17 -10 17 -18z"/>
<path d="M510 240 c0 -63 2 -70 20 -70 15 0 20 7 20 25 0 20 5 25 23 25 14 0
24 6 24 15 0 9 -10 15 -24 15 -14 0 -23 6 -23 15 0 9 9 15 25 15 16 0 25 6 25
15 0 11 -12 15 -45 15 l-45 0 0 -70z"/>
<path d="M687 249 c-16 -22 -12 -52 8 -69 23 -19 68 -7 84 22 14 24 14 28 -3
47 -25 27 -70 27 -89 0z m63 -29 c0 -11 -6 -20 -14 -20 -18 0 -29 16 -21 30
11 18 35 11 35 -10z"/>
<path d="M1066 233 c28 -65 29 -83 5 -83 -12 0 -21 -6 -21 -15 0 -18 43 -20
58 -2 5 6 21 40 35 75 l26 62 -25 0 c-20 0 -24 -5 -24 -30 0 -38 -18 -40 -22
-2 -2 19 -9 28 -26 30 -23 4 -23 3 -6 -35z"/>
</g>
</svg>
